<?xml version="1.0" standalone="no"?>
<!DOCTYPE svg PUBLIC "-//W3C//DTD SVG 20010904//EN"
 "http://www.w3.org/TR/2001/REC-SVG-20010904/DTD/svg10.dtd">
<svg version="1.0" xmlns="http://www.w3.org/2000/svg"
 width="528.000000pt" height="106.000000pt" viewBox="0 0 528.000000 106.000000"
 preserveAspectRatio="xMidYMid meet">
<metadata>
Created by potrace 1.15, written by Peter Selinger 2001-2017
</metadata>
<g transform="translate(0.000000,106.000000) scale(0.100000,-0.100000)"
fill="#000000" stroke="none">
<path d="M0 530 l0 -530 2640 0 2640 0 0 530 0 530 -2640 0 -2640 0 0 -530z
m425 105 c48 -108 91 -197 94 -200 4 -2 42 76 85 173 107 240 94 224 169 220
l62 -3 3 -292 2 -293 -70 0 -69 0 -3 137 -3 137 -59 -137 -58 -137 -58 0 -58
0 -59 137 -58 138 -3 -137 -3 -138 -64 0 -65 0 0 295 0 295 64 0 63 0 88 -195z
m1545 53 l0 -142 68 67 68 68 75 -3 74 -3 -87 -90 -86 -90 104 -125 105 -125
-73 -3 c-82 -3 -66 -14 -169 108 -41 48 -48 53 -63 41 -12 -10 -16 -31 -16
-82 l0 -69 -65 0 -65 0 0 295 0 295 65 0 65 0 0 -142z m1806 114 c72 -37 101
-109 69 -176 -10 -20 -26 -41 -37 -47 -18 -10 -17 -12 14 -32 18 -13 43 -38
56 -57 20 -29 23 -44 20 -93 -5 -67 -27 -101 -84 -131 -34 -18 -61 -21 -201
-24 l-163 -4 0 297 0 298 143 -5 c119 -4 149 -8 183 -26z m-746 -72 l0 -50 45
0 45 0 0 -55 0 -55 -45 0 -45 0 0 -99 c0 -112 8 -127 60 -116 l31 7 -3 -59 -3
-58 -72 -3 c-67 -3 -74 -1 -103 25 -38 34 -49 80 -50 211 l0 92 -31 0 -30 0 3
53 c3 48 5 52 31 55 25 3 27 7 27 46 0 23 3 46 7 49 3 4 35 7 70 7 l63 0 0
-50z m1620 0 l0 -50 45 0 45 0 0 -55 0 -55 -45 0 -45 0 0 -99 c0 -112 8 -127
60 -116 l31 7 -3 -59 -3 -58 -69 -3 c-119 -5 -139 21 -146 198 l-5 125 -27 3
c-27 3 -28 6 -28 58 0 53 0 54 30 54 29 0 30 1 30 50 l0 50 65 0 65 0 0 -50z
m-3432 -73 c19 -17 20 -17 25 3 4 17 13 20 66 20 l61 0 0 -220 0 -220 -65 0
c-53 0 -65 3 -65 16 0 15 -3 14 -27 -2 -36 -23 -136 -24 -178 -2 -38 20 -78
63 -100 107 -13 26 -16 53 -13 112 3 67 7 83 33 120 44 63 104 91 182 87 41
-3 68 -10 81 -21z m372 -29 l0 -53 19 31 c31 50 68 74 117 74 l44 0 0 -65 0
-65 -35 0 c-47 0 -88 -22 -117 -62 -20 -28 -23 -47 -27 -140 l-3 -108 -64 0
-64 0 0 220 0 220 65 0 65 0 0 -52z m1050 42 c43 -12 103 -71 125 -122 8 -21
15 -60 15 -88 l0 -50 -150 0 c-86 0 -150 -4 -150 -9 0 -5 12 -19 26 -30 29
-23 103 -29 146 -12 19 7 30 3 62 -24 44 -36 42 -46 -13 -75 -128 -65 -300 -8
-347 115 -25 67 -16 153 22 207 56 80 165 116 264 88z m1651 -13 c24 -13 57
-43 74 -66 24 -34 30 -54 33 -111 l4 -70 -151 0 c-86 0 -151 -4 -151 -9 0 -5
12 -19 26 -30 30 -24 120 -29 156 -10 18 10 26 6 57 -26 l36 -36 -30 -24 c-28
-23 -101 -45 -149 -45 -12 0 -46 7 -74 15 -202 60 -219 328 -27 416 58 27 141
25 196 -4z m759 8 c29 -15 80 -73 80 -92 0 -5 -23 -15 -52 -21 -47 -11 -53
-11 -72 7 -26 24 -66 18 -66 -9 0 -13 20 -26 73 -46 98 -38 127 -68 127 -132
0 -69 -32 -106 -108 -128 -94 -27 -190 6 -225 78 l-16 33 51 17 50 18 20 -26
c16 -20 28 -24 57 -22 28 2 37 8 39 24 3 19 -8 26 -68 50 -91 36 -130 77 -130
138 0 51 27 91 74 112 42 18 130 17 166 -1z"/>
<path d="M3590 430 l0 -70 65 0 c57 0 69 3 90 25 28 27 29 33 15 69 -10 28
-59 46 -127 46 l-43 0 0 -70z"/>
<path d="M1113 559 c-43 -13 -63 -44 -63 -101 0 -68 32 -103 94 -103 66 0 100
35 100 105 0 41 -5 55 -25 74 -29 29 -64 37 -106 25z"/>
</g>
</svg>
