<?xml version="1.0" encoding="utf-8"?>
<!-- Generator: Adobe Illustrator 19.2.1, SVG Export Plug-In . SVG Version: 6.00 Build 0)  -->
<svg version="1.1" id="Layer_1" xmlns="http://www.w3.org/2000/svg" xmlns:xlink="http://www.w3.org/1999/xlink" x="0px" y="0px"
	 viewBox="0 0 547.324 424.176" style="enable-background:new 0 0 547.324 424.176;" xml:space="preserve">
<style type="text/css">
	.st0{fill:#43C5B8;}
	.st1{opacity:0.2;}
	.st2{fill:#FFFFFF;}
</style>
<g>
	<g>
		<path class="st0" d="M213.014,420.6c-1.38-1.013-2.572-2.207-3.579-3.579c-1.38-1.013-2.572-2.207-3.579-3.579
			c-1.38-1.013-2.572-2.207-3.579-3.579c-1.38-1.013-2.572-2.207-3.579-3.579c-1.38-1.013-2.572-2.207-3.579-3.579
			c-1.38-1.013-2.572-2.207-3.579-3.579c-1.38-1.013-2.572-2.207-3.579-3.579c-1.38-1.013-2.572-2.207-3.579-3.579
			c-1.38-1.013-2.572-2.207-3.579-3.579c-1.38-1.013-2.572-2.207-3.579-3.579c-1.38-1.013-2.572-2.207-3.579-3.579
			c-1.38-1.013-2.572-2.207-3.579-3.579c-1.38-1.013-2.572-2.207-3.579-3.579c-1.38-1.013-2.572-2.207-3.579-3.579
			c-1.38-1.013-2.572-2.207-3.579-3.579c-1.38-1.013-2.572-2.207-3.579-3.579c-1.38-1.013-2.572-2.207-3.579-3.579
			c-1.38-1.013-2.572-2.207-3.579-3.579c-1.38-1.013-2.572-2.207-3.579-3.579c-1.38-1.013-2.572-2.207-3.579-3.579
			c-1.38-1.013-2.572-2.207-3.579-3.579c-1.38-1.013-2.572-2.207-3.579-3.579c-2.57-1.886-4.499-4.393-5.774-7.524
			c-5.269-12.971-9.154-23.338-11.653-31.109c-2.499-7.768-3.68-12.869-3.547-15.301c-0.674-1.216-1.653-3.375-2.938-6.485
			c-1.282-3.106-2.6-7.362-3.952-12.768c-1.349-4.864-2.331-8.983-2.939-12.362c-0.608-3.375-0.912-6.01-0.912-7.904
			c0-8.781,0.677-15.368,2.026-19.76c1.352-4.389,3.379-6.586,6.08-6.586c4.737,0,8.825,0.674,12.273,2.023
			c3.449,1.349,6.391,3.236,8.826,5.662c0.351,0.42,0.709,0.903,1.073,1.441c0.881,0.665,1.729,1.364,2.506,2.138
			c0.351,0.42,0.709,0.903,1.073,1.441c0.881,0.665,1.729,1.364,2.506,2.138c0.351,0.42,0.708,0.902,1.073,1.44
			c0.881,0.665,1.729,1.364,2.506,2.138c0.351,0.42,0.709,0.903,1.073,1.441c0.881,0.665,1.729,1.364,2.506,2.138
			c0.351,0.42,0.708,0.902,1.073,1.44c0.881,0.665,1.729,1.364,2.506,2.138c0.351,0.42,0.709,0.903,1.073,1.441
			c0.881,0.665,1.729,1.364,2.506,2.138c0.351,0.42,0.708,0.903,1.073,1.441c0.881,0.665,1.729,1.364,2.506,2.138
			c0.351,0.42,0.709,0.902,1.073,1.441c0.881,0.665,1.729,1.364,2.506,2.138c0.351,0.42,0.709,0.903,1.073,1.441
			c0.881,0.665,1.729,1.364,2.506,2.138c0.351,0.42,0.708,0.902,1.073,1.44c0.881,0.665,1.729,1.364,2.506,2.138
			c0.351,0.42,0.709,0.903,1.073,1.441c0.881,0.665,1.729,1.364,2.506,2.138c0.202,0.242,0.407,0.51,0.614,0.792
			c2.315-8.195,4.375-15.713,6.179-22.54c1.96-7.435,3.414-14.259,4.36-20.479c0.947-2.568,1.96-5.643,3.043-9.227
			c1.083-3.582,2.299-7.873,3.654-12.875c0.405-1.08,0.64-2.397,0.709-3.952c0.066-1.555,0.304-3.414,0.709-5.576
			c1.083-6.758,2.264-13.62,3.55-20.58s2.537-13.889,3.756-20.786c1.349-8.106,2.296-15.643,2.837-22.606
			c0.334-4.294,0.553-8.342,0.681-12.2c-1.22-0.705-1.835-1.52-1.835-2.449c0-0.11,0.017-0.225,0.025-0.337
			c-2.397-0.861-3.604-1.941-3.604-3.242c0-0.11,0.017-0.224,0.025-0.336c-2.397-0.861-3.604-1.941-3.604-3.242
			c0-0.11,0.017-0.225,0.025-0.337c-2.397-0.861-3.604-1.941-3.604-3.242c0-0.11,0.017-0.224,0.025-0.336
			c-2.397-0.861-3.604-1.941-3.604-3.242c0-0.11,0.017-0.224,0.025-0.336c-2.397-0.861-3.604-1.941-3.604-3.242
			c0-1.887,1.146-4.076,3.439-6.571c2.294-2.488,5.663-5.218,10.112-8.182c1.349-2.29,3.338-4.142,5.966-5.558
			c2.628-1.416,5.63-2.663,9.003-3.74c1.751-2.02,3.977-4.379,6.675-7.077c0.807-0.808,1.919-1.65,3.334-2.524
			c1.415-0.874,2.999-1.716,4.753-2.527c2.698-1.077,5.057-2.09,7.081-3.034c2.369,0,4.308,1.349,5.823,4.038
			c1.381,0.6,2.574,1.794,3.579,3.579c1.381,0.601,2.574,1.794,3.579,3.579c1.381,0.601,2.574,1.794,3.579,3.579
			c1.381,0.6,2.574,1.794,3.579,3.579c1.381,0.6,2.574,1.794,3.579,3.579c0.384,0.167,0.75,0.39,1.105,0.648
			c0.468-1.75,0.901-3.5,1.255-5.25c-0.957-2.701-1.745-4.931-2.359-6.688c-0.614-1.758-0.921-3.11-0.921-4.057
			c0-1.216,0.304-2.16,0.912-2.837c0.608-0.674,1.45-1.013,2.533-1.013c3.781,0.678,7.093,1.286,9.931,1.824
			c1.349-0.406,2.701-0.842,4.053-1.317c1.349-0.472,2.701-0.979,4.053-1.52c3.244,0,6.146,0.237,8.714,0.709
			c2.566,0.475,4.525,0.981,5.877,1.52c1.891,0.947,3.852,1.96,5.879,3.04c2.025,1.083,3.982,2.03,5.877,2.84
			c1.621-0.269,3.781-0.608,6.484-1.016c0.811,0,1.553,0.136,2.23,0.408c1.621,1.083,3.578,2.062,5.877,2.942
			c2.295,0.88,4.93,1.656,7.902,2.331c3.244,0.542,6.012,1.115,8.311,1.723c2.295,0.608,4.119,1.251,5.471,1.929
			c14.32,7.435,26.854,14.433,37.596,20.988c10.74,6.558,19.623,12.945,26.648,19.164c2.959,2.564,5.703,5.178,8.248,7.839
			c1.235,1.183,2.429,2.376,3.58,3.58c1.235,1.183,2.429,2.376,3.58,3.58c1.234,1.183,2.428,2.375,3.578,3.578
			c1.235,1.184,2.429,2.377,3.58,3.58c1.235,1.183,2.428,2.375,3.578,3.578c1.235,1.183,2.429,2.376,3.58,3.58
			c1.235,1.183,2.429,2.376,3.58,3.58c1.234,1.183,2.428,2.375,3.578,3.578c1.235,1.184,2.429,2.377,3.58,3.58
			c1.235,1.183,2.428,2.375,3.578,3.578c1.235,1.183,2.429,2.376,3.58,3.58c1.235,1.183,2.429,2.376,3.58,3.58
			c1.234,1.183,2.428,2.375,3.578,3.578c1.235,1.184,2.429,2.377,3.58,3.58c1.235,1.183,2.428,2.375,3.578,3.578
			c1.235,1.183,2.429,2.376,3.58,3.58c1.235,1.183,2.429,2.376,3.58,3.58c1.234,1.183,2.428,2.375,3.578,3.578
			c1.235,1.184,2.429,2.377,3.58,3.58c1.235,1.183,2.428,2.375,3.578,3.578c1.235,1.183,2.429,2.376,3.58,3.58
			c1.235,1.183,2.429,2.376,3.579,3.579c1.235,1.183,2.429,2.376,3.579,3.579c1.235,1.183,2.429,2.376,3.579,3.579
			c1.235,1.183,2.428,2.375,3.578,3.578c1.235,1.184,2.429,2.377,3.58,3.58c1.235,1.183,2.428,2.375,3.578,3.578
			c1.235,1.183,2.429,2.376,3.58,3.58c1.235,1.183,2.429,2.376,3.579,3.579c1.235,1.183,2.428,2.375,3.578,3.578
			c1.235,1.184,2.429,2.377,3.58,3.58c1.235,1.183,2.428,2.375,3.578,3.578c1.235,1.183,2.429,2.376,3.58,3.58
			c1.235,1.183,2.429,2.376,3.58,3.58c1.234,1.183,2.428,2.375,3.578,3.578c1.235,1.184,2.429,2.377,3.58,3.58
			c1.235,1.183,2.428,2.375,3.578,3.578c1.235,1.183,2.429,2.376,3.58,3.58c0.024,0.023,0.047,0.046,0.071,0.069V0H0v424.176h216.59
			C215.211,423.164,214.02,421.971,213.014,420.6z"/>
		<path class="st0" d="M547.324,261.739c-0.024-0.023-0.047-0.046-0.071-0.069c-1.151-1.203-2.344-2.396-3.58-3.58
			c-1.15-1.203-2.343-2.395-3.578-3.578c-1.151-1.203-2.345-2.396-3.58-3.58c-1.15-1.202-2.343-2.395-3.578-3.578
			c-1.151-1.203-2.344-2.396-3.58-3.58c-1.151-1.203-2.344-2.396-3.58-3.58c-1.15-1.203-2.343-2.395-3.578-3.578
			c-1.151-1.203-2.345-2.396-3.58-3.58c-1.15-1.203-2.343-2.395-3.578-3.578c-1.15-1.203-2.344-2.396-3.579-3.579
			c-1.151-1.203-2.344-2.396-3.58-3.58c-1.15-1.203-2.343-2.395-3.578-3.578c-1.151-1.203-2.345-2.396-3.58-3.58
			c-1.15-1.203-2.343-2.395-3.578-3.578c-1.15-1.203-2.344-2.396-3.579-3.579c-1.15-1.203-2.344-2.396-3.579-3.579
			c-1.15-1.203-2.344-2.396-3.579-3.579c-1.151-1.203-2.344-2.396-3.58-3.58c-1.15-1.203-2.343-2.395-3.578-3.578
			c-1.151-1.203-2.345-2.396-3.58-3.58c-1.15-1.202-2.343-2.395-3.578-3.578c-1.151-1.203-2.344-2.396-3.58-3.58
			c-1.151-1.203-2.344-2.396-3.58-3.58c-1.15-1.203-2.343-2.395-3.578-3.578c-1.151-1.203-2.345-2.396-3.58-3.58
			c-1.15-1.202-2.343-2.395-3.578-3.578c-1.151-1.203-2.344-2.396-3.58-3.58c-1.151-1.203-2.344-2.396-3.58-3.58
			c-1.15-1.203-2.343-2.395-3.578-3.578c-1.151-1.203-2.345-2.396-3.58-3.58c-1.15-1.202-2.343-2.395-3.578-3.578
			c-1.151-1.203-2.344-2.396-3.58-3.58c-1.151-1.203-2.344-2.396-3.58-3.58c-1.15-1.203-2.343-2.395-3.578-3.578
			c-1.151-1.203-2.345-2.396-3.58-3.58c-1.15-1.202-2.343-2.395-3.578-3.578c-1.151-1.203-2.344-2.396-3.58-3.58
			c-1.151-1.203-2.344-2.396-3.58-3.58c-2.545-2.661-5.289-5.275-8.248-7.839c-7.025-6.219-15.908-12.606-26.648-19.164
			c-10.742-6.555-23.276-13.553-37.596-20.988c-1.352-0.678-3.176-1.321-5.471-1.929c-2.299-0.608-5.067-1.181-8.311-1.723
			c-2.972-0.675-5.607-1.451-7.902-2.331c-2.299-0.88-4.256-1.859-5.877-2.942c-0.677-0.272-1.419-0.408-2.23-0.408
			c-2.703,0.408-4.863,0.747-6.484,1.016c-1.895-0.81-3.852-1.757-5.877-2.84c-2.027-1.08-3.988-2.093-5.879-3.04
			c-1.352-0.539-3.311-1.045-5.877-1.52c-2.568-0.472-5.47-0.709-8.714-0.709c-1.352,0.541-2.704,1.048-4.053,1.52
			c-1.352,0.475-2.704,0.911-4.053,1.317c-2.838-0.538-6.15-1.146-9.931-1.824c-1.083,0-1.925,0.339-2.533,1.013
			c-0.608,0.677-0.912,1.621-0.912,2.837c0,0.947,0.307,2.299,0.921,4.057c0.614,1.757,1.402,3.987,2.359,6.688
			c-0.355,1.75-0.787,3.5-1.255,5.25c-0.355-0.258-0.721-0.481-1.105-0.648c-1.005-1.785-2.198-2.978-3.579-3.579
			c-1.005-1.785-2.198-2.978-3.579-3.579c-1.005-1.785-2.198-2.978-3.579-3.579c-1.005-1.785-2.198-2.978-3.579-3.579
			c-1.005-1.785-2.198-2.979-3.579-3.579c-1.514-2.69-3.454-4.038-5.823-4.038c-2.024,0.944-4.383,1.957-7.081,3.034
			c-1.754,0.811-3.338,1.653-4.753,2.527c-1.415,0.874-2.527,1.716-3.334,2.524c-2.698,2.698-4.924,5.057-6.675,7.077
			c-3.373,1.077-6.375,2.324-9.003,3.74c-2.628,1.416-4.617,3.268-5.966,5.558c-4.449,2.964-7.818,5.694-10.112,8.182
			c-2.293,2.495-3.439,4.684-3.439,6.571c0,1.302,1.207,2.381,3.604,3.242c-0.008,0.112-0.025,0.227-0.025,0.336
			c0,1.301,1.207,2.381,3.604,3.242c-0.008,0.112-0.025,0.227-0.025,0.336c0,1.302,1.207,2.381,3.604,3.242
			c-0.008,0.112-0.025,0.227-0.025,0.337c0,1.301,1.207,2.381,3.604,3.242c-0.008,0.112-0.025,0.227-0.025,0.336
			c0,1.301,1.207,2.381,3.604,3.242c-0.008,0.112-0.025,0.227-0.025,0.337c0,0.929,0.614,1.744,1.835,2.449
			c-0.128,3.857-0.347,7.906-0.681,12.2c-0.541,6.963-1.488,14.5-2.837,22.606c-1.219,6.897-2.47,13.826-3.756,20.786
			s-2.467,13.822-3.55,20.58c-0.405,2.162-0.643,4.021-0.709,5.576c-0.069,1.555-0.304,2.872-0.709,3.952
			c-1.355,5.002-2.571,9.293-3.654,12.875c-1.083,3.584-2.096,6.659-3.043,9.227c-0.946,6.22-2.4,13.044-4.36,20.479
			c-1.804,6.828-3.864,14.346-6.179,22.54c-0.207-0.281-0.412-0.549-0.614-0.792c-0.777-0.774-1.625-1.474-2.506-2.138
			c-0.364-0.538-0.722-1.02-1.073-1.441c-0.777-0.774-1.625-1.474-2.506-2.138c-0.364-0.538-0.722-1.02-1.073-1.44
			c-0.777-0.774-1.625-1.474-2.506-2.138c-0.364-0.538-0.722-1.02-1.073-1.441c-0.777-0.774-1.625-1.474-2.506-2.138
			c-0.364-0.538-0.722-1.02-1.073-1.441c-0.777-0.774-1.625-1.474-2.506-2.138c-0.364-0.538-0.722-1.02-1.073-1.441
			c-0.777-0.774-1.625-1.474-2.506-2.138c-0.364-0.538-0.722-1.02-1.073-1.441c-0.777-0.774-1.625-1.474-2.506-2.138
			c-0.364-0.538-0.722-1.02-1.073-1.44c-0.777-0.774-1.625-1.474-2.506-2.138c-0.364-0.538-0.722-1.02-1.073-1.441
			c-0.777-0.774-1.625-1.474-2.506-2.138c-0.364-0.538-0.722-1.02-1.073-1.44c-0.777-0.774-1.625-1.474-2.506-2.138
			c-0.364-0.538-0.722-1.02-1.073-1.441c-0.777-0.774-1.625-1.474-2.506-2.138c-0.364-0.538-0.722-1.02-1.073-1.441
			c-2.435-2.426-5.377-4.313-8.826-5.662c-3.448-1.349-7.536-2.023-12.273-2.023c-2.701,0-4.728,2.197-6.08,6.586
			c-1.349,4.392-2.026,10.979-2.026,19.76c0,1.894,0.304,4.529,0.912,7.904c0.608,3.379,1.59,7.498,2.939,12.362
			c1.352,5.406,2.67,9.662,3.952,12.768c1.285,3.11,2.264,5.269,2.938,6.485c-0.133,2.432,1.048,7.533,3.547,15.301
			c2.499,7.771,6.384,18.138,11.653,31.109c1.275,3.132,3.203,5.638,5.774,7.524c1.007,1.372,2.199,2.566,3.579,3.579
			c1.007,1.372,2.199,2.566,3.579,3.579c1.007,1.372,2.199,2.566,3.579,3.579c1.007,1.372,2.199,2.566,3.579,3.579
			c1.007,1.372,2.199,2.566,3.579,3.579c1.007,1.372,2.199,2.566,3.579,3.579c1.007,1.372,2.199,2.566,3.579,3.579
			c1.007,1.372,2.199,2.566,3.579,3.579c1.007,1.372,2.199,2.566,3.579,3.579c1.007,1.372,2.199,2.566,3.579,3.579
			c1.007,1.372,2.199,2.566,3.579,3.579c1.007,1.372,2.199,2.566,3.579,3.579c1.007,1.372,2.199,2.566,3.579,3.579
			c1.007,1.372,2.199,2.566,3.579,3.579c1.007,1.372,2.199,2.566,3.579,3.579c1.007,1.372,2.199,2.566,3.579,3.579
			c1.007,1.372,2.199,2.566,3.579,3.579c1.007,1.372,2.199,2.566,3.579,3.579c1.007,1.372,2.199,2.566,3.579,3.579
			c1.007,1.372,2.199,2.566,3.579,3.579c1.007,1.372,2.199,2.566,3.579,3.579c1.007,1.372,2.199,2.566,3.579,3.579
			c1.006,1.371,2.197,2.564,3.576,3.576h330.734V261.739z"/>
		<path class="st1" d="M547.324,261.739c-0.024-0.023-0.047-0.046-0.071-0.069c-1.151-1.203-2.344-2.396-3.58-3.58
			c-1.15-1.203-2.343-2.395-3.578-3.578c-1.151-1.203-2.345-2.396-3.58-3.58c-1.15-1.202-2.343-2.395-3.578-3.578
			c-1.151-1.203-2.344-2.396-3.58-3.58c-1.151-1.203-2.344-2.396-3.58-3.58c-1.15-1.203-2.343-2.395-3.578-3.578
			c-1.151-1.203-2.345-2.396-3.58-3.58c-1.15-1.203-2.343-2.395-3.578-3.578c-1.15-1.203-2.344-2.396-3.579-3.579
			c-1.151-1.203-2.344-2.396-3.58-3.58c-1.15-1.203-2.343-2.395-3.578-3.578c-1.151-1.203-2.345-2.396-3.58-3.58
			c-1.15-1.203-2.343-2.395-3.578-3.578c-1.15-1.203-2.344-2.396-3.579-3.579c-1.15-1.203-2.344-2.396-3.579-3.579
			c-1.15-1.203-2.344-2.396-3.579-3.579c-1.151-1.203-2.344-2.396-3.58-3.58c-1.15-1.203-2.343-2.395-3.578-3.578
			c-1.151-1.203-2.345-2.396-3.58-3.58c-1.15-1.202-2.343-2.395-3.578-3.578c-1.151-1.203-2.344-2.396-3.58-3.58
			c-1.151-1.203-2.344-2.396-3.58-3.58c-1.15-1.203-2.343-2.395-3.578-3.578c-1.151-1.203-2.345-2.396-3.58-3.58
			c-1.15-1.202-2.343-2.395-3.578-3.578c-1.151-1.203-2.344-2.396-3.58-3.58c-1.151-1.203-2.344-2.396-3.58-3.58
			c-1.15-1.203-2.343-2.395-3.578-3.578c-1.151-1.203-2.345-2.396-3.58-3.58c-1.15-1.202-2.343-2.395-3.578-3.578
			c-1.151-1.203-2.344-2.396-3.58-3.58c-1.151-1.203-2.344-2.396-3.58-3.58c-1.15-1.203-2.343-2.395-3.578-3.578
			c-1.151-1.203-2.345-2.396-3.58-3.58c-1.15-1.202-2.343-2.395-3.578-3.578c-1.151-1.203-2.344-2.396-3.58-3.58
			c-1.151-1.203-2.344-2.396-3.58-3.58c-2.545-2.661-5.289-5.275-8.248-7.839c-7.025-6.219-15.908-12.606-26.648-19.164
			c-10.742-6.555-23.276-13.553-37.596-20.988c-1.352-0.678-3.176-1.321-5.471-1.929c-2.299-0.608-5.067-1.181-8.311-1.723
			c-2.972-0.675-5.607-1.451-7.902-2.331c-2.299-0.88-4.256-1.859-5.877-2.942c-0.677-0.272-1.419-0.408-2.23-0.408
			c-2.703,0.408-4.863,0.747-6.484,1.016c-1.895-0.81-3.852-1.757-5.877-2.84c-2.027-1.08-3.988-2.093-5.879-3.04
			c-1.352-0.539-3.311-1.045-5.877-1.52c-2.568-0.472-5.47-0.709-8.714-0.709c-1.352,0.541-2.704,1.048-4.053,1.52
			c-1.352,0.475-2.704,0.911-4.053,1.317c-2.838-0.538-6.15-1.146-9.931-1.824c-1.083,0-1.925,0.339-2.533,1.013
			c-0.608,0.677-0.912,1.621-0.912,2.837c0,0.947,0.307,2.299,0.921,4.057c0.614,1.757,1.402,3.987,2.359,6.688
			c-0.355,1.75-0.787,3.5-1.255,5.25c-0.355-0.258-0.721-0.481-1.105-0.648c-1.005-1.785-2.198-2.978-3.579-3.579
			c-1.005-1.785-2.198-2.978-3.579-3.579c-1.005-1.785-2.198-2.978-3.579-3.579c-1.005-1.785-2.198-2.978-3.579-3.579
			c-1.005-1.785-2.198-2.979-3.579-3.579c-1.514-2.69-3.454-4.038-5.823-4.038c-2.024,0.944-4.383,1.957-7.081,3.034
			c-1.754,0.811-3.338,1.653-4.753,2.527c-1.415,0.874-2.527,1.716-3.334,2.524c-2.698,2.698-4.924,5.057-6.675,7.077
			c-3.373,1.077-6.375,2.324-9.003,3.74c-2.628,1.416-4.617,3.268-5.966,5.558c-4.449,2.964-7.818,5.694-10.112,8.182
			c-2.293,2.495-3.439,4.684-3.439,6.571c0,1.302,1.207,2.381,3.604,3.242c-0.008,0.112-0.025,0.227-0.025,0.336
			c0,1.301,1.207,2.381,3.604,3.242c-0.008,0.112-0.025,0.227-0.025,0.336c0,1.302,1.207,2.381,3.604,3.242
			c-0.008,0.112-0.025,0.227-0.025,0.337c0,1.301,1.207,2.381,3.604,3.242c-0.008,0.112-0.025,0.227-0.025,0.336
			c0,1.301,1.207,2.381,3.604,3.242c-0.008,0.112-0.025,0.227-0.025,0.337c0,0.929,0.614,1.744,1.835,2.449
			c-0.128,3.857-0.347,7.906-0.681,12.2c-0.541,6.963-1.488,14.5-2.837,22.606c-1.219,6.897-2.47,13.826-3.756,20.786
			s-2.467,13.822-3.55,20.58c-0.405,2.162-0.643,4.021-0.709,5.576c-0.069,1.555-0.304,2.872-0.709,3.952
			c-1.355,5.002-2.571,9.293-3.654,12.875c-1.083,3.584-2.096,6.659-3.043,9.227c-0.946,6.22-2.4,13.044-4.36,20.479
			c-1.804,6.828-3.864,14.346-6.179,22.54c-0.207-0.281-0.412-0.549-0.614-0.792c-0.777-0.774-1.625-1.474-2.506-2.138
			c-0.364-0.538-0.722-1.02-1.073-1.441c-0.777-0.774-1.625-1.474-2.506-2.138c-0.364-0.538-0.722-1.02-1.073-1.44
			c-0.777-0.774-1.625-1.474-2.506-2.138c-0.364-0.538-0.722-1.02-1.073-1.441c-0.777-0.774-1.625-1.474-2.506-2.138
			c-0.364-0.538-0.722-1.02-1.073-1.441c-0.777-0.774-1.625-1.474-2.506-2.138c-0.364-0.538-0.722-1.02-1.073-1.441
			c-0.777-0.774-1.625-1.474-2.506-2.138c-0.364-0.538-0.722-1.02-1.073-1.441c-0.777-0.774-1.625-1.474-2.506-2.138
			c-0.364-0.538-0.722-1.02-1.073-1.44c-0.777-0.774-1.625-1.474-2.506-2.138c-0.364-0.538-0.722-1.02-1.073-1.441
			c-0.777-0.774-1.625-1.474-2.506-2.138c-0.364-0.538-0.722-1.02-1.073-1.44c-0.777-0.774-1.625-1.474-2.506-2.138
			c-0.364-0.538-0.722-1.02-1.073-1.441c-0.777-0.774-1.625-1.474-2.506-2.138c-0.364-0.538-0.722-1.02-1.073-1.441
			c-2.435-2.426-5.377-4.313-8.826-5.662c-3.448-1.349-7.536-2.023-12.273-2.023c-2.701,0-4.728,2.197-6.08,6.586
			c-1.349,4.392-2.026,10.979-2.026,19.76c0,1.894,0.304,4.529,0.912,7.904c0.608,3.379,1.59,7.498,2.939,12.362
			c1.352,5.406,2.67,9.662,3.952,12.768c1.285,3.11,2.264,5.269,2.938,6.485c-0.133,2.432,1.048,7.533,3.547,15.301
			c2.499,7.771,6.384,18.138,11.653,31.109c1.275,3.132,3.203,5.638,5.774,7.524c1.007,1.372,2.199,2.566,3.579,3.579
			c1.007,1.372,2.199,2.566,3.579,3.579c1.007,1.372,2.199,2.566,3.579,3.579c1.007,1.372,2.199,2.566,3.579,3.579
			c1.007,1.372,2.199,2.566,3.579,3.579c1.007,1.372,2.199,2.566,3.579,3.579c1.007,1.372,2.199,2.566,3.579,3.579
			c1.007,1.372,2.199,2.566,3.579,3.579c1.007,1.372,2.199,2.566,3.579,3.579c1.007,1.372,2.199,2.566,3.579,3.579
			c1.007,1.372,2.199,2.566,3.579,3.579c1.007,1.372,2.199,2.566,3.579,3.579c1.007,1.372,2.199,2.566,3.579,3.579
			c1.007,1.372,2.199,2.566,3.579,3.579c1.007,1.372,2.199,2.566,3.579,3.579c1.007,1.372,2.199,2.566,3.579,3.579
			c1.007,1.372,2.199,2.566,3.579,3.579c1.007,1.372,2.199,2.566,3.579,3.579c1.007,1.372,2.199,2.566,3.579,3.579
			c1.007,1.372,2.199,2.566,3.579,3.579c1.007,1.372,2.199,2.566,3.579,3.579c1.007,1.372,2.199,2.566,3.579,3.579
			c1.006,1.371,2.197,2.564,3.576,3.576h330.734V261.739z"/>
	</g>
	<g>
		<path class="st2" d="M195.05,83.992c1.349-2.29,3.338-4.142,5.966-5.558s5.63-2.663,9.003-3.74
			c1.751-2.02,3.977-4.379,6.675-7.077c0.807-0.808,1.919-1.65,3.334-2.524c1.415-0.874,2.999-1.716,4.753-2.527
			c2.698-1.077,5.057-2.09,7.081-3.034c3.141,0,5.529,2.365,7.169,7.093c1.637,4.731,2.458,11.824,2.458,21.279
			c0,14.459-0.915,27.597-2.739,39.418c-1.827,11.824-4.566,22.261-8.217,31.312c-0.405,1.083-0.845,2.299-1.317,3.648
			c-0.475,1.352-1.048,2.837-1.726,4.458c-0.405,2.432-0.982,5.27-1.726,8.512c-0.744,3.242-1.589,7.026-2.533,11.349
			c-0.272,1.488-0.44,3.211-0.506,5.167c-0.07,1.96-0.374,4.357-0.916,7.195c-0.272,1.757-1.083,4.763-2.435,9.019
			s-3.382,9.696-6.086,16.314l0.813,4.458c-1.083,3.784-2.54,8.445-4.363,13.983c-1.827,5.542-4.025,11.891-6.593,19.051
			c-0.811,3.515-2.03,7.736-3.651,12.666c-1.625,4.934-3.584,10.64-5.883,17.125c-0.406,3.515-0.814,6.555-1.219,9.12
			c-0.272,1.083-1.149,3.987-2.638,8.714c-1.488,4.731-3.92,11.283-7.302,19.658c-0.95,2.299-2.673,4.427-5.174,6.384
			c-2.502,1.96-5.918,3.819-10.244,5.573c-3.654,1.488-7.138,2.634-10.45,3.445s-6.457,1.216-9.434,1.216
			c-4.458,0-8.309-0.979-11.552-2.938c-3.242-1.957-5.608-4.763-7.093-8.411c-5.269-12.971-9.154-23.338-11.653-31.109
			c-2.499-7.768-3.68-12.869-3.547-15.301c-0.674-1.216-1.653-3.375-2.938-6.485c-1.282-3.106-2.6-7.362-3.952-12.768
			c-1.349-4.864-2.331-8.983-2.939-12.362c-0.608-3.375-0.912-6.01-0.912-7.904c0-8.781,0.677-15.368,2.026-19.76
			c1.352-4.389,3.379-6.586,6.08-6.586c4.737,0,8.825,0.674,12.273,2.023c3.449,1.349,6.391,3.236,8.826,5.662
			c1.352,1.621,2.806,4.116,4.363,7.486c1.555,3.369,3.347,7.685,5.377,12.942c2.705,6.067,4.699,10.991,5.985,14.766
			s1.929,6.27,1.929,7.483c0,2.438-1.659,4.642-4.972,6.605c-3.315,1.963-4.972,3.759-4.972,5.386
			c1.216,2.306,2.264,4.674,3.145,7.112c0.88,2.438,1.792,4.674,2.739,6.707c1.488,3.661,3.008,6.336,4.566,8.027
			c1.555,1.694,3.145,2.54,4.769,2.54c2.163,0,4.63-3.04,7.404-9.123s5.782-15.276,9.028-27.578
			c2.571-9.056,4.835-17.299,6.799-24.734c1.96-7.435,3.414-14.259,4.36-20.479c0.947-2.568,1.96-5.643,3.043-9.227
			c1.083-3.582,2.299-7.873,3.654-12.875c0.405-1.08,0.64-2.397,0.709-3.952c0.066-1.555,0.304-3.414,0.709-5.576
			c1.083-6.758,2.264-13.62,3.55-20.58s2.537-13.889,3.756-20.786c1.349-8.106,2.296-15.643,2.837-22.606
			c0.542-6.96,0.813-13.347,0.813-19.161c0-4.864-3.312-7.771-9.93-8.717c-6.622-0.947-9.931-2.502-9.931-4.665
			c0-1.887,1.146-4.076,3.439-6.571C187.232,89.686,190.601,86.956,195.05,83.992z"/>
		<path class="st2" d="M437.059,285.908c2.969,6.622,5.537,12.837,7.701,18.645c-2.705,2.71-6.283,5.181-10.742,7.413
			c-4.459,2.235-9.66,4.23-15.605,5.988c-1.621,0.409-3.545,0.95-5.775,1.628c-2.229,0.678-4.762,1.352-7.6,2.03
			c-3.92,0.272-8.613,0.678-14.086,1.219c-5.471,0.542-11.924,1.286-19.354,2.232c-10.539,8.258-19.896,14.759-28.068,19.497
			c-8.176,4.734-15.033,7.78-20.57,9.136l-3.041,2.638c-4.594,2.026-10.168,3.68-16.719,4.965
			c-6.555,1.283-14.287,2.397-23.205,3.345c-1.622-0.405-3.278-1.388-4.966-2.938c-1.691-1.556-3.616-3.75-5.776-6.587
			c1.349-1.495,3.04-3.433,5.066-5.805c2.027-2.378,4.256-5.193,6.689-8.455c2.025-2.986,4.424-5.393,7.193-7.22
			c2.768-1.824,6.314-3.145,10.641-3.955c4.459-0.944,9.389-2.296,14.795-4.054c1.348-1.08,3.004-2.194,4.965-3.344
			c1.957-1.146,4.154-2.533,6.586-4.155c3.107-1.485,6.35-3.578,9.729-6.282c3.375-2.701,7.094-6.01,11.146-9.931
			c5.402-5.269,9.729-9.49,12.971-12.667c3.242-3.173,5.199-5.168,5.877-5.979c1.08-1.89,2.229-3.613,3.445-5.168
			c1.215-1.551,2.701-3.005,4.459-4.357c1.891-3.243,4.256-7.328,7.092-12.261c2.838-4.931,6.213-10.64,10.135-17.125
			c0.674-0.674,1.52-1.653,2.533-2.938c1.012-1.283,2.193-2.667,3.545-4.155c2.701-3.106,4.662-7.834,5.879-14.187
			c1.215-6.349,1.822-14.05,1.822-23.104c0-6.213-1.586-12.698-4.758-19.456c-3.174-6.754-8.068-13.914-14.682-21.482
			c-5.535-6.213-11.408-11.786-17.619-16.72c-6.209-4.93-12.484-8.949-18.832-12.058c-4.859-2.432-9.416-4.829-13.666-7.195
			c-4.254-2.362-8.135-4.49-11.645-6.384c-1.891,6.757-4.287,16.08-7.191,27.967c-2.902,11.891-6.178,26.346-9.822,43.37
			c-4.053,19.187-7.09,34.655-9.117,46.41c-2.025,11.754-3.035,19.659-3.035,23.712c-0.812,3.378-1.486,6.757-2.023,10.133
			l-8.104,39.925c-4.726,9.189-8.779,16.01-12.155,20.469s-6.01,6.688-7.897,6.688c-0.957,0-1.846-0.776-2.667-2.331
			c-0.82-1.555-1.64-4.021-2.46-7.4l2.46-11.558c-0.412-0.811-0.82-1.957-1.229-3.445c0.817-8.784,1.571-17.673,2.255-26.66
			s1.431-17.942,2.248-26.862c0.675-10,1.688-19.396,3.04-28.18c1.349-8.784,2.837-16.897,4.458-24.332l-2.432-10.339
			c0.943-2.565,1.789-5.741,2.533-9.528c0.741-3.784,1.384-8.109,1.925-12.974c0.538-6.219,1.013-11.254,1.418-15.104
			s0.877-6.52,1.418-8.008c0.539-1.757,1.115-3.987,1.723-6.691c0.608-2.701,1.318-5.944,2.129-9.731
			c0.404-1.485,2.768-4.357,7.094-8.617c4.322-4.256,7.092-7.467,8.309-9.629c2.838-0.405,4.93-0.979,6.283-1.723
			c1.348-0.744,2.025-1.726,2.025-2.942c0-0.944-0.779-1.754-2.33-2.432c-1.555-0.674-3.885-1.216-6.992-1.621
			c-1.488,0-3.211-0.168-5.168-0.507c-1.959-0.335-3.951-0.912-5.979-1.726l-16.619-8.11c-3.528-1.621-6.216-3.243-8.059-4.864
			c-1.846-1.622-2.768-3.309-2.768-5.07c0.817-2.701,1.501-5.405,2.049-8.109c-0.957-2.701-1.745-4.931-2.359-6.688
			c-0.614-1.758-0.921-3.11-0.921-4.057c0-1.216,0.304-2.16,0.912-2.837c0.608-0.674,1.45-1.013,2.533-1.013
			c3.781,0.678,7.093,1.286,9.931,1.824c1.349-0.406,2.701-0.842,4.053-1.317c1.349-0.472,2.701-0.979,4.053-1.52
			c3.244,0,6.146,0.237,8.714,0.709c2.566,0.475,4.525,0.981,5.877,1.52c1.891,0.947,3.852,1.96,5.879,3.04
			c2.025,1.083,3.982,2.03,5.877,2.84c1.621-0.269,3.781-0.608,6.484-1.016c0.811,0,1.553,0.136,2.23,0.408
			c1.621,1.083,3.578,2.062,5.877,2.942c2.295,0.88,4.93,1.656,7.902,2.331c3.244,0.542,6.012,1.115,8.311,1.723
			c2.295,0.608,4.119,1.251,5.471,1.929c14.32,7.435,26.854,14.433,37.596,20.988c10.74,6.558,19.623,12.945,26.648,19.164
			c11.078,9.601,19.254,19.88,24.523,30.83s7.904,22.375,7.904,34.272c0,18.93-5.609,39.006-16.822,60.232
			c-11.215,21.229-27.9,43.538-50.057,66.926c1.891-0.811,4.389-1.691,7.498-2.641c3.105-0.95,6.688-2.103,10.74-3.458
			c8.512-1.894,17.293-3.926,26.348-6.096c5.674-1.624,10.469-3.385,14.389-5.282C431.45,290.721,434.626,288.485,437.059,285.908z"
			/>
	</g>
</g>
</svg>
